<svg width="133" height="28" viewBox="0 0 133 28" fill="none" xmlns="http://www.w3.org/2000/svg">
<g clip-path="url(#clip0_4_553)">
<path d="M14 28C21.732 28 28 21.732 28 14C28 6.26801 21.732 0 14 0C6.26801 0 0 6.26801 0 14C0 21.732 6.26801 28 14 28Z" fill="#FFDA44"/>
<path d="M0 14C0 6.26806 6.26806 0 14 0C21.7319 0 28 6.26806 28 14" fill="#338AF3"/>
</g>
<path d="M46.3516 19.0566V21H39.2129V19.0566H46.3516ZM39.8965 6.78125V21H37.4453V6.78125H39.8965ZM52.2699 21.1953C51.4887 21.1953 50.7823 21.0684 50.1508 20.8145C49.5258 20.554 48.9919 20.1927 48.5492 19.7305C48.113 19.2682 47.7777 18.7246 47.5434 18.0996C47.309 17.4746 47.1918 16.8008 47.1918 16.0781V15.6875C47.1918 14.8607 47.3122 14.112 47.5531 13.4414C47.794 12.7708 48.1293 12.1979 48.559 11.7227C48.9887 11.2409 49.4965 10.873 50.0824 10.6191C50.6684 10.3652 51.3031 10.2383 51.9867 10.2383C52.7419 10.2383 53.4027 10.3652 53.9691 10.6191C54.5355 10.873 55.0043 11.2311 55.3754 11.6934C55.753 12.1491 56.0329 12.6927 56.2152 13.3242C56.404 13.9557 56.4984 14.6523 56.4984 15.4141V16.4199H48.3344V14.7305H54.1742V14.5449C54.1612 14.1217 54.0766 13.7246 53.9203 13.3535C53.7706 12.9824 53.5395 12.6829 53.227 12.4551C52.9145 12.2272 52.4978 12.1133 51.977 12.1133C51.5863 12.1133 51.238 12.1979 50.932 12.3672C50.6326 12.5299 50.3819 12.7676 50.1801 13.0801C49.9783 13.3926 49.822 13.7702 49.7113 14.2129C49.6072 14.6491 49.5551 15.1406 49.5551 15.6875V16.0781C49.5551 16.5404 49.6169 16.9701 49.7406 17.3672C49.8708 17.7578 50.0596 18.0996 50.307 18.3926C50.5544 18.6855 50.8539 18.9167 51.2055 19.0859C51.557 19.2487 51.9574 19.3301 52.4066 19.3301C52.973 19.3301 53.4776 19.2161 53.9203 18.9883C54.363 18.7604 54.7471 18.4382 55.0727 18.0215L56.3129 19.2227C56.085 19.5547 55.7888 19.8737 55.4242 20.1797C55.0596 20.4792 54.6137 20.7233 54.0863 20.9121C53.5655 21.1009 52.96 21.1953 52.2699 21.1953ZM63.8914 18.8809V13.8418C63.8914 13.4642 63.823 13.1387 63.6863 12.8652C63.5496 12.5918 63.3413 12.3802 63.0613 12.2305C62.7879 12.0807 62.4428 12.0059 62.0262 12.0059C61.6421 12.0059 61.31 12.071 61.0301 12.2012C60.7501 12.3314 60.532 12.5072 60.3758 12.7285C60.2195 12.9499 60.1414 13.2005 60.1414 13.4805H57.7977C57.7977 13.0638 57.8986 12.6602 58.1004 12.2695C58.3022 11.8789 58.5952 11.5306 58.9793 11.2246C59.3634 10.9186 59.8224 10.6777 60.3563 10.502C60.8901 10.3262 61.4891 10.2383 62.1531 10.2383C62.9474 10.2383 63.6505 10.3717 64.2625 10.6387C64.881 10.9056 65.366 11.3092 65.7176 11.8496C66.0757 12.3835 66.2547 13.054 66.2547 13.8613V18.5586C66.2547 19.0404 66.2872 19.4733 66.3523 19.8574C66.424 20.235 66.5249 20.5638 66.6551 20.8438V21H64.243C64.1323 20.7461 64.0444 20.4238 63.9793 20.0332C63.9207 19.6361 63.8914 19.252 63.8914 18.8809ZM64.2332 14.5742L64.2527 16.0293H62.5633C62.1271 16.0293 61.743 16.0716 61.4109 16.1562C61.0789 16.2344 60.8022 16.3516 60.5809 16.5078C60.3595 16.6641 60.1935 16.8529 60.0828 17.0742C59.9721 17.2956 59.9168 17.5462 59.9168 17.8262C59.9168 18.1061 59.9819 18.3633 60.1121 18.5977C60.2423 18.8255 60.4311 19.0046 60.6785 19.1348C60.9324 19.265 61.2384 19.3301 61.5965 19.3301C62.0783 19.3301 62.4982 19.2324 62.8563 19.0371C63.2208 18.8353 63.5073 18.5911 63.7156 18.3047C63.924 18.0117 64.0346 17.735 64.0477 17.4746L64.8094 18.5195C64.7313 18.7865 64.5978 19.0729 64.409 19.3789C64.2202 19.6849 63.9728 19.9779 63.6668 20.2578C63.3673 20.5312 63.006 20.7559 62.5828 20.9316C62.1661 21.1074 61.6844 21.1953 61.1375 21.1953C60.4474 21.1953 59.8322 21.0586 59.2918 20.7852C58.7514 20.5052 58.3283 20.1309 58.0223 19.6621C57.7163 19.1868 57.5633 18.6497 57.5633 18.0508C57.5633 17.4909 57.6674 16.9961 57.8758 16.5664C58.0906 16.1302 58.4031 15.7656 58.8133 15.4727C59.2299 15.1797 59.7378 14.9583 60.3367 14.8086C60.9357 14.6523 61.6193 14.5742 62.3875 14.5742H64.2332ZM70.6789 12.4453V21H68.3254V10.4336H70.5715L70.6789 12.4453ZM73.9113 10.3652L73.8918 12.5527C73.7486 12.5267 73.5923 12.5072 73.423 12.4941C73.2603 12.4811 73.0975 12.4746 72.9348 12.4746C72.5311 12.4746 72.1763 12.5332 71.8703 12.6504C71.5643 12.7611 71.3072 12.9238 71.0988 13.1387C70.897 13.347 70.7408 13.6009 70.6301 13.9004C70.5194 14.1999 70.4543 14.5352 70.4348 14.9062L69.8977 14.9453C69.8977 14.2812 69.9628 13.666 70.093 13.0996C70.2232 12.5332 70.4185 12.0352 70.6789 11.6055C70.9458 11.1758 71.2779 10.8405 71.675 10.5996C72.0786 10.3587 72.5441 10.2383 73.0715 10.2383C73.2147 10.2383 73.3677 10.2513 73.5305 10.2773C73.6997 10.3034 73.8267 10.3327 73.9113 10.3652ZM77.3199 12.6895V21H74.9664V10.4336H77.1832L77.3199 12.6895ZM76.9 15.3262L76.1383 15.3164C76.1448 14.5677 76.249 13.8809 76.4508 13.2559C76.6591 12.6309 76.9456 12.0938 77.3102 11.6445C77.6813 11.1953 78.124 10.8503 78.6383 10.6094C79.1526 10.362 79.7255 10.2383 80.357 10.2383C80.8648 10.2383 81.3238 10.3099 81.734 10.4531C82.1507 10.5898 82.5055 10.8145 82.7984 11.127C83.0979 11.4395 83.3258 11.8464 83.482 12.3477C83.6383 12.8424 83.7164 13.4512 83.7164 14.1738V21H81.3531V14.1641C81.3531 13.6562 81.2783 13.2559 81.1285 12.9629C80.9853 12.6634 80.7737 12.4518 80.4938 12.3281C80.2203 12.1979 79.8785 12.1328 79.4684 12.1328C79.0647 12.1328 78.7034 12.2174 78.3844 12.3867C78.0654 12.556 77.7952 12.7871 77.5738 13.0801C77.359 13.373 77.193 13.7116 77.0758 14.0957C76.9586 14.4798 76.9 14.89 76.9 15.3262ZM94.8594 19.0566V21H87.7207V19.0566H94.8594ZM88.4043 6.78125V21H85.9531V6.78125H88.4043ZM98.6391 10.4336V21H96.2758V10.4336H98.6391ZM96.1195 7.66016C96.1195 7.30208 96.2367 7.00586 96.4711 6.77148C96.712 6.5306 97.044 6.41016 97.4672 6.41016C97.8839 6.41016 98.2126 6.5306 98.4535 6.77148C98.6944 7.00586 98.8148 7.30208 98.8148 7.66016C98.8148 8.01172 98.6944 8.30469 98.4535 8.53906C98.2126 8.77344 97.8839 8.89062 97.4672 8.89062C97.044 8.89062 96.712 8.77344 96.4711 8.53906C96.2367 8.30469 96.1195 8.01172 96.1195 7.66016ZM103.151 12.6895V21H100.798V10.4336H103.014L103.151 12.6895ZM102.731 15.3262L101.97 15.3164C101.976 14.5677 102.08 13.8809 102.282 13.2559C102.49 12.6309 102.777 12.0938 103.141 11.6445C103.513 11.1953 103.955 10.8503 104.47 10.6094C104.984 10.362 105.557 10.2383 106.188 10.2383C106.696 10.2383 107.155 10.3099 107.565 10.4531C107.982 10.5898 108.337 10.8145 108.63 11.127C108.929 11.4395 109.157 11.8464 109.313 12.3477C109.47 12.8424 109.548 13.4512 109.548 14.1738V21H107.184V14.1641C107.184 13.6562 107.11 13.2559 106.96 12.9629C106.817 12.6634 106.605 12.4518 106.325 12.3281C106.052 12.1979 105.71 12.1328 105.3 12.1328C104.896 12.1328 104.535 12.2174 104.216 12.3867C103.897 12.556 103.626 12.7871 103.405 13.0801C103.19 13.373 103.024 13.7116 102.907 14.0957C102.79 14.4798 102.731 14.89 102.731 15.3262ZM118.318 10.4336H120.456V20.707C120.456 21.6576 120.254 22.4648 119.851 23.1289C119.447 23.793 118.884 24.2975 118.161 24.6426C117.439 24.9941 116.602 25.1699 115.652 25.1699C115.248 25.1699 114.799 25.1113 114.304 24.9941C113.816 24.877 113.34 24.6882 112.878 24.4277C112.422 24.1738 112.042 23.8385 111.736 23.4219L112.839 22.0352C113.217 22.4844 113.633 22.8132 114.089 23.0215C114.545 23.2298 115.023 23.334 115.525 23.334C116.065 23.334 116.524 23.2331 116.902 23.0312C117.286 22.8359 117.582 22.5462 117.79 22.1621C117.999 21.778 118.103 21.3092 118.103 20.7559V12.8262L118.318 10.4336ZM111.14 15.834V15.6289C111.14 14.8281 111.238 14.099 111.433 13.4414C111.628 12.7773 111.908 12.2077 112.273 11.7324C112.637 11.2507 113.08 10.8828 113.601 10.6289C114.122 10.3685 114.711 10.2383 115.368 10.2383C116.052 10.2383 116.635 10.362 117.116 10.6094C117.605 10.8568 118.012 11.2116 118.337 11.6738C118.663 12.1296 118.917 12.6764 119.099 13.3145C119.288 13.946 119.428 14.6491 119.519 15.4238V16.0781C119.434 16.8333 119.291 17.5234 119.089 18.1484C118.887 18.7734 118.62 19.3138 118.288 19.7695C117.956 20.2253 117.546 20.5768 117.058 20.8242C116.576 21.0716 116.006 21.1953 115.349 21.1953C114.704 21.1953 114.122 21.0618 113.601 20.7949C113.086 20.528 112.644 20.1536 112.273 19.6719C111.908 19.1901 111.628 18.6237 111.433 17.9727C111.238 17.3151 111.14 16.6022 111.14 15.834ZM113.493 15.6289V15.834C113.493 16.3158 113.539 16.765 113.63 17.1816C113.728 17.5983 113.874 17.9661 114.07 18.2852C114.271 18.5977 114.525 18.8451 114.831 19.0273C115.144 19.2031 115.512 19.291 115.935 19.291C116.488 19.291 116.941 19.1738 117.292 18.9395C117.65 18.7051 117.924 18.3893 118.113 17.9922C118.308 17.5885 118.445 17.1393 118.523 16.6445V14.877C118.484 14.4928 118.402 14.1348 118.279 13.8027C118.161 13.4707 118.002 13.181 117.8 12.9336C117.598 12.6797 117.344 12.4844 117.038 12.3477C116.732 12.2044 116.371 12.1328 115.954 12.1328C115.531 12.1328 115.163 12.224 114.851 12.4062C114.538 12.5885 114.281 12.8392 114.079 13.1582C113.884 13.4772 113.738 13.8483 113.64 14.2715C113.542 14.6947 113.493 15.1471 113.493 15.6289ZM122.048 15.834V15.6094C122.048 14.8477 122.159 14.1413 122.38 13.4902C122.602 12.8327 122.921 12.263 123.338 11.7812C123.761 11.293 124.275 10.9154 124.88 10.6484C125.492 10.375 126.183 10.2383 126.951 10.2383C127.726 10.2383 128.416 10.375 129.021 10.6484C129.633 10.9154 130.151 11.293 130.574 11.7812C130.997 12.263 131.319 12.8327 131.541 13.4902C131.762 14.1413 131.873 14.8477 131.873 15.6094V15.834C131.873 16.5957 131.762 17.3021 131.541 17.9531C131.319 18.6042 130.997 19.1738 130.574 19.6621C130.151 20.1439 129.636 20.5215 129.031 20.7949C128.425 21.0618 127.739 21.1953 126.97 21.1953C126.196 21.1953 125.502 21.0618 124.89 20.7949C124.285 20.5215 123.77 20.1439 123.347 19.6621C122.924 19.1738 122.602 18.6042 122.38 17.9531C122.159 17.3021 122.048 16.5957 122.048 15.834ZM124.402 15.6094V15.834C124.402 16.3092 124.451 16.7585 124.548 17.1816C124.646 17.6048 124.799 17.9759 125.007 18.2949C125.216 18.6139 125.483 18.8646 125.808 19.0469C126.134 19.2292 126.521 19.3203 126.97 19.3203C127.407 19.3203 127.784 19.2292 128.103 19.0469C128.429 18.8646 128.696 18.6139 128.904 18.2949C129.112 17.9759 129.265 17.6048 129.363 17.1816C129.467 16.7585 129.519 16.3092 129.519 15.834V15.6094C129.519 15.1406 129.467 14.6979 129.363 14.2812C129.265 13.8581 129.109 13.4837 128.894 13.1582C128.686 12.8327 128.419 12.5788 128.093 12.3965C127.774 12.2077 127.393 12.1133 126.951 12.1133C126.508 12.1133 126.124 12.2077 125.798 12.3965C125.479 12.5788 125.216 12.8327 125.007 13.1582C124.799 13.4837 124.646 13.8581 124.548 14.2812C124.451 14.6979 124.402 15.1406 124.402 15.6094Z" fill="#121417"/>
<defs>
<clipPath id="clip0_4_553">
<rect width="28" height="28" fill="white"/>
</clipPath>
</defs>
</svg>
